<svg version="1.1" id="Layer_1" xmlns="http://www.w3.org/2000/svg" xmlns:xlink="http://www.w3.org/1999/xlink" x="0px" y="0px"
	 width="100%" viewBox="0 0 240 240" enable-background="new 0 0 240 240" xml:space="preserve">
<path fill="#F7052D" opacity="1.000000" stroke="none" 
	d="
M156.000000,241.000000 
	C104.000000,241.000000 52.500008,241.000000 1.000007,241.000000 
	C1.000005,161.000015 1.000005,81.000015 1.000002,1.000018 
	C80.999992,1.000012 160.999985,1.000012 240.999969,1.000006 
	C240.999985,80.999985 240.999985,160.999969 241.000000,240.999969 
	C212.833328,241.000000 184.666672,241.000000 156.000000,241.000000 
M138.449982,151.348267 
	C138.597519,140.924377 138.770615,130.500641 138.831467,120.076241 
	C138.835266,119.425964 137.959229,118.770561 136.972549,117.704185 
	C133.228775,114.211861 130.967728,117.028984 128.981583,119.781082 
	C123.424332,127.481483 118.014946,135.288605 112.059364,143.746429 
	C109.709732,135.327866 107.762054,127.805145 105.426010,120.405029 
	C104.913330,118.780975 103.218697,116.861725 101.695107,116.445831 
	C100.565300,116.137428 98.138672,117.695625 97.475555,119.017311 
	C92.084694,129.762054 86.973534,140.647141 81.666481,151.720535 
	C90.402611,152.381607 90.420013,152.389694 93.741264,145.243774 
	C95.209496,142.084778 96.500595,138.840332 98.055511,135.726257 
	C98.696411,134.442719 99.819786,133.400085 101.237244,131.593307 
	C103.481361,139.029968 105.412163,145.428314 107.251442,151.523392 
	C112.695412,153.038116 116.077751,151.329453 118.615120,146.699677 
	C120.757408,142.790817 123.645279,139.276550 126.353065,135.701157 
	C127.059654,134.768173 128.325363,134.258606 130.177673,132.966049 
	C130.177673,140.018158 130.177673,145.790192 130.177673,151.947021 
	C132.981384,151.947021 135.430695,151.947021 138.449982,151.348267 
M132.223648,87.823502 
	C128.808670,89.241257 125.393684,90.659012 120.861107,92.540741 
	C121.302902,89.860107 121.343361,88.295593 121.830177,86.885132 
	C124.155350,80.148262 126.705849,73.487312 128.922974,66.716431 
	C129.406204,65.240685 129.371704,63.075073 128.579514,61.897106 
	C128.104019,61.190067 125.484818,61.292519 124.194267,61.860687 
	C105.057541,70.285683 85.967934,78.818459 66.904099,87.407669 
	C63.182495,89.084427 63.169022,89.758659 65.847137,93.040833 
	C83.044121,85.845032 100.203697,78.664879 118.058205,71.193947 
	C118.058205,73.256393 118.373100,74.355110 118.008842,75.137703 
	C114.829247,81.969002 111.590599,88.774773 108.239258,95.523453 
	C106.284622,99.459549 104.335190,103.264534 108.952583,106.757484 
	C120.427559,103.499161 131.990097,100.194672 143.565231,96.934875 
	C156.675049,93.242897 169.829529,89.704857 182.897873,85.872391 
	C189.193329,84.026169 191.791626,78.673286 189.595520,73.103416 
	C187.526779,67.856598 183.003372,66.245354 176.893250,68.813667 
	C162.209610,74.985748 147.565445,81.251732 132.223648,87.823502 
M50.979198,152.015686 
	C52.931580,152.015686 54.883961,152.015686 57.741611,152.015686 
	C55.042019,147.800278 52.762493,144.240784 50.543442,140.775742 
	C52.489517,139.621719 54.824013,139.024094 55.688156,137.559128 
	C57.422226,134.619431 59.658768,130.999161 59.192230,128.055283 
	C58.835205,125.802422 54.832031,122.914421 52.116871,122.501015 
	C46.482033,121.643066 40.625378,122.241989 34.722553,122.241989 
	C32.391743,132.279358 30.159817,141.890900 27.855183,151.815552 
	C30.855160,151.815552 33.295513,151.815552 35.822922,151.815552 
	C36.677605,148.464249 37.488979,145.282761 38.723808,140.440857 
	C41.198517,142.497559 43.059162,143.785172 44.594906,145.384720 
	C46.583557,147.455963 48.313103,149.775970 50.979198,152.015686 
M177.709412,151.597015 
	C175.467468,143.308807 173.338959,134.987579 170.940781,126.744835 
	C169.515411,121.845757 165.680893,120.400711 163.028015,123.942078 
	C156.334259,132.877640 150.154129,142.197952 143.567795,151.651688 
	C148.192886,152.347229 151.926514,152.783218 153.848557,148.117889 
	C154.095749,147.517868 155.396179,147.060822 156.221832,147.039169 
	C160.357346,146.930817 164.497253,146.989548 168.740021,146.989548 
	C169.354721,148.709534 169.893799,150.217972 170.509415,151.940536 
	C172.668137,151.940536 174.805969,151.940536 177.709412,151.597015 
M190.659439,138.501175 
	C191.467789,133.072571 195.294937,128.438278 199.281784,128.331100 
	C203.760025,128.210693 208.243988,128.303406 212.717834,128.303406 
	C213.238174,126.091782 213.638184,124.391548 214.099274,122.431763 
	C211.369431,121.998154 209.102936,121.336060 206.835464,121.332787 
	C199.025803,121.321495 191.456421,122.479416 186.014709,128.834259 
	C178.300095,137.843414 181.976120,149.422379 193.463333,151.856705 
	C197.957199,152.809036 202.727585,152.456635 207.459213,152.703018 
	C208.131775,149.632233 208.561462,147.670380 208.899017,146.129242 
	C205.047226,146.129242 201.757584,146.236191 198.477692,146.102798 
	C194.152832,145.926895 191.472092,143.687531 190.659439,138.501175 
M78.314178,128.067780 
	C78.702560,126.208282 79.090942,124.348778 79.765762,121.117859 
	C76.141502,122.215645 71.884262,122.438622 71.482941,123.799057 
	C68.793213,132.916977 66.924080,142.276993 64.730278,151.812775 
	C67.845200,151.812775 70.294388,151.812775 72.865166,151.812775 
	C74.635689,144.046188 76.367859,136.447861 78.314178,128.067780 
z"/>
<path fill="#FFF7F8" opacity="1.000000" stroke="none" 
	d="
M132.564514,87.651665 
	C147.565445,81.251732 162.209610,74.985748 176.893250,68.813667 
	C183.003372,66.245354 187.526779,67.856598 189.595520,73.103416 
	C191.791626,78.673286 189.193329,84.026169 182.897873,85.872391 
	C169.829529,89.704857 156.675049,93.242897 143.565231,96.934875 
	C131.990097,100.194672 120.427559,103.499161 108.952583,106.757484 
	C104.335190,103.264534 106.284622,99.459549 108.239258,95.523453 
	C111.590599,88.774773 114.829247,81.969002 118.008842,75.137703 
	C118.373100,74.355110 118.058205,73.256393 118.058205,71.193947 
	C100.203697,78.664879 83.044121,85.845032 65.847137,93.040833 
	C63.169022,89.758659 63.182495,89.084427 66.904099,87.407669 
	C85.967934,78.818459 105.057541,70.285683 124.194267,61.860687 
	C125.484818,61.292519 128.104019,61.190067 128.579514,61.897106 
	C129.371704,63.075073 129.406204,65.240685 128.922974,66.716431 
	C126.705849,73.487312 124.155350,80.148262 121.830177,86.885132 
	C121.343361,88.295593 121.302902,89.860107 120.861107,92.540741 
	C125.393684,90.659012 128.808670,89.241257 132.564514,87.651665 
z"/>
<path fill="#FFF5F6" opacity="1.000000" stroke="none" 
	d="
M137.880005,151.947021 
	C135.430695,151.947021 132.981384,151.947021 130.177673,151.947021 
	C130.177673,145.790192 130.177673,140.018158 130.177673,132.966049 
	C128.325363,134.258606 127.059654,134.768173 126.353065,135.701157 
	C123.645279,139.276550 120.757408,142.790817 118.615120,146.699677 
	C116.077751,151.329453 112.695412,153.038116 107.251442,151.523392 
	C105.412163,145.428314 103.481361,139.029968 101.237244,131.593307 
	C99.819786,133.400085 98.696411,134.442719 98.055511,135.726257 
	C96.500595,138.840332 95.209496,142.084778 93.741264,145.243774 
	C90.420013,152.389694 90.402611,152.381607 81.666481,151.720535 
	C86.973534,140.647141 92.084694,129.762054 97.475555,119.017311 
	C98.138672,117.695625 100.565300,116.137428 101.695107,116.445831 
	C103.218697,116.861725 104.913330,118.780975 105.426010,120.405029 
	C107.762054,127.805145 109.709732,135.327866 112.059364,143.746429 
	C118.014946,135.288605 123.424332,127.481483 128.981583,119.781082 
	C130.967728,117.028984 133.228775,114.211861 137.353699,118.355835 
	C137.783234,129.987335 137.831619,140.967178 137.880005,151.947021 
z"/>
<path fill="#FFF5F6" opacity="1.000000" stroke="none" 
	d="
M50.566704,152.002289 
	C48.313103,149.775970 46.583557,147.455963 44.594906,145.384720 
	C43.059162,143.785172 41.198517,142.497559 38.723808,140.440857 
	C37.488979,145.282761 36.677605,148.464249 35.822922,151.815552 
	C33.295513,151.815552 30.855160,151.815552 27.855183,151.815552 
	C30.159817,141.890900 32.391743,132.279358 34.722553,122.241989 
	C40.625378,122.241989 46.482033,121.643066 52.116871,122.501015 
	C54.832031,122.914421 58.835205,125.802422 59.192230,128.055283 
	C59.658768,130.999161 57.422226,134.619431 55.688156,137.559128 
	C54.824013,139.024094 52.489517,139.621719 50.543442,140.775742 
	C52.762493,144.240784 55.042019,147.800278 57.741611,152.015686 
	C54.883961,152.015686 52.931580,152.015686 50.566704,152.002289 
M45.075699,135.963211 
	C46.026699,135.712891 47.310570,135.764511 47.864376,135.153931 
	C49.344097,133.522522 51.757858,131.435577 51.538872,129.840042 
	C51.096478,126.616692 48.006546,126.564629 45.232819,127.291359 
	C43.875092,127.647087 42.540001,128.089203 41.335144,128.450134 
	C40.823925,130.964111 40.374367,133.174896 39.847546,135.765594 
	C41.385113,135.838440 42.804451,135.905685 45.075699,135.963211 
z"/>
<path fill="#FFF6F7" opacity="1.000000" stroke="none" 
	d="
M177.326614,151.768768 
	C174.805969,151.940536 172.668137,151.940536 170.509415,151.940536 
	C169.893799,150.217972 169.354721,148.709534 168.740021,146.989548 
	C164.497253,146.989548 160.357346,146.930817 156.221832,147.039169 
	C155.396179,147.060822 154.095749,147.517868 153.848557,148.117889 
	C151.926514,152.783218 148.192886,152.347229 143.567795,151.651688 
	C150.154129,142.197952 156.334259,132.877640 163.028015,123.942078 
	C165.680893,120.400711 169.515411,121.845757 170.940781,126.744835 
	C173.338959,134.987579 175.467468,143.308807 177.326614,151.768768 
M166.297791,140.925049 
	C165.818893,138.561920 165.340012,136.198776 164.861115,133.835648 
	C162.752686,135.890884 160.644272,137.946121 157.570999,140.941849 
	C161.424805,140.941849 163.411789,140.941849 166.297791,140.925049 
z"/>
<path fill="#FEF2F3" opacity="1.000000" stroke="none" 
	d="
M190.679138,138.920685 
	C191.472092,143.687531 194.152832,145.926895 198.477692,146.102798 
	C201.757584,146.236191 205.047226,146.129242 208.899017,146.129242 
	C208.561462,147.670380 208.131775,149.632233 207.459213,152.703018 
	C202.727585,152.456635 197.957199,152.809036 193.463333,151.856705 
	C181.976120,149.422379 178.300095,137.843414 186.014709,128.834259 
	C191.456421,122.479416 199.025803,121.321495 206.835464,121.332787 
	C209.102936,121.336060 211.369431,121.998154 214.099274,122.431763 
	C213.638184,124.391548 213.238174,126.091782 212.717834,128.303406 
	C208.243988,128.303406 203.760025,128.210693 199.281784,128.331100 
	C195.294937,128.438278 191.467789,133.072571 190.679138,138.920685 
z"/>
<path fill="#FFF5F6" opacity="1.000000" stroke="none" 
	d="
M78.207108,128.458649 
	C76.367859,136.447861 74.635689,144.046188 72.865166,151.812775 
	C70.294388,151.812775 67.845200,151.812775 64.730278,151.812775 
	C66.924080,142.276993 68.793213,132.916977 71.482941,123.799057 
	C71.884262,122.438622 76.141502,122.215645 79.765762,121.117859 
	C79.090942,124.348778 78.702560,126.208282 78.207108,128.458649 
z"/>
<path fill="#F70001" opacity="1.000000" stroke="none" 
	d="
M138.164993,151.647644 
	C137.831619,140.967178 137.783234,129.987335 137.613693,118.562515 
	C137.959229,118.770561 138.835266,119.425964 138.831467,120.076241 
	C138.770615,130.500641 138.597519,140.924377 138.164993,151.647644 
z"/>
<path fill="#F7082F" opacity="1.000000" stroke="none" 
	d="
M44.649742,135.968079 
	C42.804451,135.905685 41.385113,135.838440 39.847546,135.765594 
	C40.374367,133.174896 40.823925,130.964111 41.335144,128.450134 
	C42.540001,128.089203 43.875092,127.647087 45.232819,127.291359 
	C48.006546,126.564629 51.096478,126.616692 51.538872,129.840042 
	C51.757858,131.435577 49.344097,133.522522 47.864376,135.153931 
	C47.310570,135.764511 46.026699,135.712891 44.649742,135.968079 
z"/>
<path fill="#F70E31" opacity="1.000000" stroke="none" 
	d="
M165.848282,140.933441 
	C163.411789,140.941849 161.424805,140.941849 157.570999,140.941849 
	C160.644272,137.946121 162.752686,135.890884 164.861115,133.835648 
	C165.340012,136.198776 165.818893,138.561920 165.848282,140.933441 
z"/>
</svg>